<svg xmlns="http://www.w3.org/2000/svg" viewBox="0 0 128 128" role="img" aria-labelledby="title">
  <title id="title">QuotaDuck — smiling duck with two usage meters</title>
  <defs>
    <linearGradient id="tile" x1="9" y1="5" x2="119" y2="125" gradientUnits="userSpaceOnUse"><stop stop-color="#21434a"/><stop offset="1" stop-color="#091b20"/></linearGradient>
    <linearGradient id="duck" x1="37" y1="34" x2="92" y2="110" gradientUnits="userSpaceOnUse"><stop stop-color="#ffe087"/><stop offset="1" stop-color="#f1b840"/></linearGradient>
  </defs>
  <rect width="128" height="128" rx="30" fill="url(#tile)"/>
  <path d="M45 108v7m38-7v7" stroke="#ea894b" stroke-width="12" stroke-linecap="round"/>
  <ellipse cx="64" cy="88" rx="39" ry="29" fill="#f3bc48"/>
  <ellipse cx="38" cy="85" rx="13" ry="20" transform="rotate(-25 38 85)" fill="#ffdc79"/>
  <ellipse cx="90" cy="85" rx="13" ry="20" transform="rotate(25 90 85)" fill="#ffdc79"/>
  <path d="M60 26c-4-7 0-12 3-12 0 5 5 6 6 12" fill="#ffe087"/>
  <circle cx="64" cy="50" r="29" fill="url(#duck)"/>
  <ellipse cx="53" cy="46" rx="4.2" ry="5.4" fill="#1e3437"/>
  <ellipse cx="75" cy="46" rx="4.2" ry="5.4" fill="#1e3437"/>
  <circle cx="54.5" cy="44.3" r="1.3" fill="#fffaf0"/>
  <circle cx="76.5" cy="44.3" r="1.3" fill="#fffaf0"/>
  <circle cx="43" cy="56" r="3.3" fill="#f6a47d" opacity=".7"/>
  <circle cx="85" cy="56" r="3.3" fill="#f6a47d" opacity=".7"/>
  <path d="M54 59c3-3 17-3 20 0 2 3-4 11-10 11s-12-8-10-11Z" fill="#ef8e4f"/>
  <path d="M56 61c5 2 11 2 16 0" fill="none" stroke="#db7542" stroke-width="1.5" stroke-linecap="round"/>
  <rect x="47" y="82" width="34" height="5" rx="2.5" fill="#9b7435" opacity=".65"/>
  <rect x="47" y="82" width="26" height="5" rx="2.5" fill="#43d7bc"/>
  <rect x="47" y="94" width="34" height="5" rx="2.5" fill="#9b7435" opacity=".65"/>
  <rect x="47" y="94" width="18" height="5" rx="2.5" fill="#43d7bc"/>
</svg>
